<?xml version="1.0" encoding="UTF-8"?>
<svg id="Camada_1" data-name="Camada 1" xmlns="http://www.w3.org/2000/svg" xmlns:xlink="http://www.w3.org/1999/xlink" viewBox="0 0 983.59 1014.37">
  <defs>
    <style>
      .cls-1 {
        fill: url(#Gradiente_sem_nome_11-2);
      }

      .cls-1, .cls-2, .cls-3, .cls-4, .cls-5 {
        stroke-width: 0px;
      }

      .cls-2 {
        fill: url(#Gradiente_sem_nome_26-3);
      }

      .cls-3 {
        fill: url(#Gradiente_sem_nome_26);
      }

      .cls-4 {
        fill: url(#Gradiente_sem_nome_11);
      }

      .cls-5 {
        fill: url(#Gradiente_sem_nome_26-2);
      }
    </style>
    <linearGradient id="Gradiente_sem_nome_26" data-name="Gradiente sem nome 26" x1="491.8" y1="760.09" x2="983.59" y2="760.09" gradientUnits="userSpaceOnUse">
      <stop offset="0" stop-color="#114e77"/>
      <stop offset="1" stop-color="#176fb7"/>
    </linearGradient>
    <linearGradient id="Gradiente_sem_nome_26-2" data-name="Gradiente sem nome 26" x1="228.85" y1="584.67" x2="414.12" y2="1040.23" xlink:href="#Gradiente_sem_nome_26"/>
    <linearGradient id="Gradiente_sem_nome_11" data-name="Gradiente sem nome 11" x1="682.31" y1="793.61" x2="833.32" y2="338.27" gradientUnits="userSpaceOnUse">
      <stop offset="0" stop-color="#50cddf"/>
      <stop offset="1" stop-color="#176fb7"/>
    </linearGradient>
    <linearGradient id="Gradiente_sem_nome_26-3" data-name="Gradiente sem nome 26" y1="250.37" y2="250.37" xlink:href="#Gradiente_sem_nome_26"/>
    <linearGradient id="Gradiente_sem_nome_11-2" data-name="Gradiente sem nome 11" x1="0" y1="250.37" x2="491.8" y2="250.37" xlink:href="#Gradiente_sem_nome_11"/>
  </defs>
  <polygon class="cls-3" points="983.59 1014.37 491.8 880.91 491.8 505.81 983.59 639.27 983.59 1014.37"/>
  <polygon class="cls-5" points="491.8 880.88 0 747.42 0 372.31 491.8 505.77 491.8 880.88"/>
  <polygon class="cls-4" points="983.59 372.31 491.8 505.77 491.8 880.88 983.59 747.42 983.59 372.31"/>
  <polygon class="cls-2" points="491.8 0 983.59 131.41 983.59 500.75 491.8 369.34 491.8 0"/>
  <polygon class="cls-1" points="0 500.75 491.8 369.34 491.8 0 0 131.41 0 500.75"/>
</svg>