<?xml version="1.0" encoding="UTF-8"?>
<svg id="Camada_1" data-name="Camada 1" xmlns="http://www.w3.org/2000/svg" xmlns:xlink="http://www.w3.org/1999/xlink" viewBox="0 0 1886.75 598.7">
  <defs>
    <style>
      .cls-1 {
        fill: url(#Gradiente_sem_nome_11-2);
      }

      .cls-1, .cls-2, .cls-3, .cls-4, .cls-5, .cls-6 {
        stroke-width: 0px;
      }

      .cls-2, .cls-7 {
        fill: #000;
      }

      .cls-3 {
        fill: url(#Gradiente_sem_nome_26-3);
      }

      .cls-7 {
        font-family: MarkPro, 'Mark Pro';
        font-size: 122.17px;
      }

      .cls-8 {
        letter-spacing: 0em;
      }

      .cls-4 {
        fill: url(#Gradiente_sem_nome_26);
      }

      .cls-5 {
        fill: url(#Gradiente_sem_nome_11);
      }

      .cls-6 {
        fill: url(#Gradiente_sem_nome_26-2);
      }

      .cls-9 {
        letter-spacing: 0em;
      }
    </style>
    <linearGradient id="Gradiente_sem_nome_26" data-name="Gradiente sem nome 26" x1="290.27" y1="448.62" x2="580.54" y2="448.62" gradientUnits="userSpaceOnUse">
      <stop offset="0" stop-color="#114e77"/>
      <stop offset="1" stop-color="#176fb7"/>
    </linearGradient>
    <linearGradient id="Gradiente_sem_nome_26-2" data-name="Gradiente sem nome 26" x1="135.07" y1="345.08" x2="244.42" y2="613.97" xlink:href="#Gradiente_sem_nome_26"/>
    <linearGradient id="Gradiente_sem_nome_11" data-name="Gradiente sem nome 11" x1="402.71" y1="468.4" x2="491.84" y2="199.65" gradientUnits="userSpaceOnUse">
      <stop offset="0" stop-color="#50cddf"/>
      <stop offset="1" stop-color="#176fb7"/>
    </linearGradient>
    <linearGradient id="Gradiente_sem_nome_26-3" data-name="Gradiente sem nome 26" y1="147.78" y2="147.78" xlink:href="#Gradiente_sem_nome_26"/>
    <linearGradient id="Gradiente_sem_nome_11-2" data-name="Gradiente sem nome 11" x1="0" y1="147.78" x2="290.27" y2="147.78" xlink:href="#Gradiente_sem_nome_11"/>
  </defs>
  <g>
    <path class="cls-2" d="M1072.77,216.18c-6.98-1.14-13.87-1.71-20.66-1.71s-13.38.57-20.36,1.71c-.05,0-.09.05-.09.11v116.45s-.03.09-.08.1c-4.67,1.33-10.68,1.99-18.04,1.99-10.52,0-18.37-2.74-23.53-8.21-5.16-5.47-7.74-15.98-7.74-31.53v-78.81c0-.05-.04-.1-.09-.11-6.98-1.14-13.87-1.71-20.66-1.71s-13.67.57-20.66,1.71c-.05,0-.09.05-.09.11v79.96c0,15.94,2.05,28.7,6.14,38.3,4.09,9.6,9.64,16.85,16.66,21.74,7.01,4.9,15.05,8.16,24.11,9.79,9.06,1.63,18.56,2.45,28.49,2.45,11.11,0,21.77-1.01,32-3.02,10.19-2.01,18.39-4.06,24.62-6.16.05-.02.08-.06.08-.11v-142.94c0-.05-.04-.1-.09-.11Z"/>
    <path class="cls-2" d="M1209.19,227.14c-11.4-9.6-27.23-14.4-47.49-14.4-7.41,0-15.39.68-23.96,2.02-8.56,1.34-17.11,3.45-25.67,6.32-.03,0-.05.04-.05.07,0,6.12.68,11.38,2.05,15.78,1.35,4.38,3.37,9.04,6.06,13.98.04.08.13.11.22.09,12.02-4,23.18-6,33.46-6,9.74,0,17.53,1.39,23.38,4.18,6.53,3.11,9.41,10.23,8.65,21.35,0,.05-.05.09-.1.08-6.55-.56-12.71-.85-18.49-.85-7.79,0-15.59.82-23.38,2.45-7.79,1.63-14.9,4.32-21.33,8.06-6.43,3.74-11.59,8.74-15.49,14.97-3.9,6.24-5.85,13.97-5.85,23.18,0,12.29,2.82,22.08,8.48,29.37,5.65,7.3,13.54,12.58,23.67,15.84,10.13,3.26,21.82,4.89,35.07,4.89,12.27,0,23.28-.96,33.02-2.88,9.7-1.91,17.95-3.92,24.76-6.02.05-.02.08-.06.08-.11v-86.3c0-21.11-5.7-36.47-17.1-46.07ZM1185.96,334.74c0,.06-.04.1-.09.11-2.13.38-4.62.81-7.51,1.28-2.92.48-5.84.72-8.77.72-3.51,0-7.55-.33-12.13-1.01-4.58-.67-8.62-2.4-12.13-5.18-3.51-2.78-5.26-7.44-5.26-13.97,0-7.49,2.78-12.91,8.33-16.27,5.55-3.36,13.1-5.04,22.65-5.04,4.65,0,9.58.47,14.8,1.42.06.01.1.06.1.12v37.81Z"/>
    <path class="cls-2" d="M1332.2,332.86c-1.7.37-3.45.64-5.24.83-1.85.19-3.56.29-5.11.29-6.82,0-11.64-1.77-14.47-5.33-2.83-3.55-4.24-11.18-4.24-22.89v-151.08c0-.05-.04-.1-.09-.11-6.98-1.14-13.77-1.71-20.36-1.71s-13.67.57-20.66,1.71c-.05,0-.09.06-.09.11v160.01c0,18.62,4.63,31.96,13.88,40.03,9.25,8.06,21.19,12.09,35.8,12.09,3.7,0,7.74-.19,12.13-.58,4.31-.38,8.01-1.04,11.1-1.97.09-.03.17-.11.19-.2.36-1.47.55-2.81.55-4.02v-4.18c0-7.24-1.06-14.87-3.17-22.87-.02-.09-.12-.15-.21-.13Z"/>
    <path class="cls-2" d="M1359.88,191.16c3.3.57,6.88.96,10.76,1.14,3.89.19,7.4.29,10.52.29,3.31,0,6.87-.09,10.67-.29,3.74-.19,7.25-.56,10.52-1.13.09-.02.16-.09.17-.17.57-3.21.95-6.42,1.14-9.64.19-3.26.29-6.43.29-9.5,0-3.26-.1-6.48-.29-9.65-.19-3.12-.57-6.28-1.14-9.5-.02-.09-.08-.16-.17-.17-3.28-.56-6.83-.99-10.67-1.27-3.9-.29-7.5-.43-10.81-.43-3.12,0-6.58.14-10.37.43-3.76.29-7.28.71-10.56,1.28-.07.01-.12.06-.13.13-1.16,6.49-1.73,12.88-1.73,19.18s.58,12.54,1.74,19.24c0,.03.03.05.06.06Z"/>
    <path class="cls-2" d="M1406.48,216.2h-59.99c-.06,0-.11.04-.12.09-1.15,4.77-1.73,9.83-1.73,15.17,0,2.5.15,5.14.44,7.92.29,2.75.72,5.36,1.29,7.83.01.05.06.09.11.09h19.37c.06,0,.12.05.12.12v117.56c0,.05.04.1.09.11,6.98,1.14,13.67,1.71,20.07,1.71s13.38-.57,20.36-1.71c.05,0,.09-.05.09-.11v-148.66c0-.06-.05-.12-.12-.12Z"/>
    <path class="cls-2" d="M1591.18,216.2h-92.41c-.06,0-.12-.05-.12-.12v-6.22c0-6.91,1.56-12.19,4.68-15.84,3.11-3.64,7.06-6.09,11.84-7.34,4.77-1.25,9.69-1.87,14.76-1.87,6.43,0,12.47.48,18.12,1.44,5.63.96,11.84,2.77,18.63,5.44.04.02.09,0,.11-.04,5.6-8.97,8.8-19.66,9.59-32.05,0-.08-.04-.16-.12-.19-7.75-3.23-15.7-5.42-23.84-6.57-8.18-1.15-17.15-1.73-26.89-1.73-13.25,0-24.99,2.26-35.22,6.77-10.23,4.51-18.27,11.09-24.11,19.72-5.84,8.64-8.77,19.1-8.77,31.39v7.08c0,.06-.05.12-.12.12h-23.75c-.05,0-.1.04-.11.09-.57,2.84-.96,5.4-1.15,7.68-.2,2.3-.29,4.71-.29,7.2,0,2.69.1,5.28.29,7.77.19,2.47.58,5.23,1.15,8.26.01.05.06.09.11.09h23.75c.06,0,.12.05.12.12v117.56c0,.05.04.1.09.11,6.98,1.14,13.87,1.71,20.66,1.71s13.38-.57,20.36-1.71c.05,0,.09-.05.09-.11v-117.56c0-.06.05-.12.12-.12h51.79c.06,0,.12.05.12.12v117.56c0,.05.04.1.09.11,6.98,1.14,13.67,1.71,20.07,1.71s13.38-.57,20.36-1.71c.05,0,.09-.05.09-.11v-148.66c0-.06-.05-.12-.12-.12Z"/>
    <path class="cls-2" d="M1733.67,330.04c-.03-.06-.1-.08-.17-.06-6.57,2.28-11.8,3.76-15.67,4.43-3.9.68-8.96,1.01-15.2,1.01-11.3,0-20.27-3.55-26.89-10.65-6.63-7.1-9.94-18.43-9.94-33.98,0-14.4,3.07-25.48,9.21-33.26,6.14-7.78,15.24-11.66,27.33-11.66,5.65,0,10.67.34,15.05,1.01,4.35.67,9.43,1.95,15.23,3.85.07.02.14,0,.17-.07,2.5-4.96,4.34-10.15,5.5-15.59,1.16-5.42,1.74-10.32,1.75-14.71,0-.07-.05-.13-.11-.16-7.94-3.04-14.92-5.05-20.93-6-6.04-.96-13.44-1.44-22.21-1.44-16.17,0-29.66,3.51-40.48,10.51-10.81,7.01-18.95,16.37-24.4,28.08-5.46,11.71-8.18,24.86-8.18,39.45s2.73,28.08,8.18,39.88c5.45,11.81,13.74,21.07,24.84,27.79,11.11,6.72,25.03,10.08,41.79,10.08,7.4,0,14.51-.43,21.33-1.3,6.78-.86,14.05-2.81,21.8-5.86.07-.03.12-.1.12-.18,0-6.86-.79-12.81-2.34-17.87-1.55-5.04-3.47-9.47-5.79-13.3Z"/>
    <path class="cls-2" d="M1869.65,227.14c-11.4-9.6-27.23-14.4-47.49-14.4-7.41,0-15.39.68-23.96,2.02-8.56,1.34-17.11,3.45-25.67,6.32-.03,0-.05.04-.05.07,0,6.12.68,11.38,2.05,15.78,1.35,4.38,3.37,9.04,6.06,13.98.04.08.13.11.22.09,12.02-4,23.18-6,33.46-6,9.74,0,17.53,1.39,23.38,4.18,6.53,3.11,9.41,10.23,8.65,21.35,0,.05-.05.09-.1.08-6.55-.56-12.71-.85-18.49-.85-7.79,0-15.59.82-23.38,2.45-7.79,1.63-14.9,4.32-21.33,8.06-6.43,3.74-11.59,8.74-15.49,14.97-3.9,6.24-5.84,13.97-5.84,23.18,0,12.29,2.82,22.08,8.48,29.37,5.65,7.3,13.54,12.58,23.67,15.84,10.13,3.26,21.82,4.89,35.07,4.89,12.27,0,23.28-.96,33.02-2.88,9.7-1.91,17.95-3.92,24.76-6.02.05-.02.08-.06.08-.11v-86.3c0-21.11-5.7-36.47-17.1-46.07ZM1846.42,334.74c0,.06-.04.1-.09.11-2.13.38-4.63.81-7.51,1.28-2.92.48-5.84.72-8.77.72-3.51,0-7.55-.33-12.13-1.01-4.58-.67-8.62-2.4-12.13-5.18-3.51-2.78-5.26-7.44-5.26-13.97,0-7.49,2.78-12.91,8.33-16.27,5.55-3.36,13.1-5.04,22.65-5.04,4.65,0,9.58.47,14.8,1.42.06.01.1.06.1.12v37.81Z"/>
    <path class="cls-2" d="M868.58,168.54c-13.44-9.31-30.69-13.97-51.73-13.97s-38.28,4.66-51.73,13.97c-13.44,9.31-23.38,22.08-29.81,38.3-6.43,16.22-9.64,34.6-9.64,55.14s3.21,38.54,9.64,54.57c6.43,16.03,16.37,28.7,29.81,38.01,13.44,9.31,30.69,13.97,51.73,13.97,11.98,0,22.73-1.51,32.25-4.53l46.94,12.74v-54.83c.83-1.74,1.61-3.52,2.35-5.35,6.43-16.03,9.64-34.22,9.64-54.57s-3.21-38.92-9.64-55.14c-6.43-16.22-16.37-28.98-29.81-38.3ZM816.85,333.4c-30.39,0-45.59-23.8-45.59-71.41s15.29-71.41,45.88-71.41c15.39,0,26.74,5.95,34.05,17.85,7.31,11.91,10.96,29.76,10.96,53.56,0,47.61-15.1,71.41-45.3,71.41Z"/>
  </g>
  <text class="cls-7" transform="translate(717.36 517.68)"><tspan x="0" y="0">Lici</tspan><tspan class="cls-8" x="197.73" y="0">t</tspan><tspan x="252.88" y="0">a</tspan><tspan class="cls-9" x="328.99" y="0">ç</tspan><tspan x="390.5" y="0">ões</tspan></text>
  <g>
    <polygon class="cls-4" points="580.54 598.7 290.27 519.93 290.27 298.54 580.54 377.31 580.54 598.7"/>
    <polygon class="cls-6" points="290.27 519.91 0 441.14 0 219.75 290.27 298.52 290.27 519.91"/>
    <polygon class="cls-5" points="580.54 219.75 290.27 298.52 290.27 519.91 580.54 441.14 580.54 219.75"/>
    <polygon class="cls-3" points="290.27 0 580.54 77.56 580.54 295.55 290.27 217.99 290.27 0"/>
    <polygon class="cls-1" points="0 295.55 290.27 217.99 290.27 0 0 77.56 0 295.55"/>
  </g>
</svg>